# xmcd
#
# Track frame offsets:
#	150
#	15516
#	34297
#	50082
#	64577
#	89356
#	111078
#	134625
#	151376
#
# Disc length: 2338 seconds
# Revision: 0
# Processed by: cddbd v1.5.2PL0 Copyright (c) Steve Scherf et al.
# Submitted via: dBpowerAMP V12.0
#
DISCID=77092009
DTITLE=Jenny Wilson - Exorcism
DYEAR=2018
DGENRE=
TTITLE0=Rapin
TTITLE1=Lo'Hi'
TTITLE2=Disrespect is Universal
TTITLE3=The Prediction
TTITLE4=It Hurts
TTITLE5=Your Angry Bible
TTITLE6=Exorcism
TTITLE7=It's Love
TTITLE8=Forever is a Long Time
EXTD=
EXTT0=
EXTT1=
EXTT2=
EXTT3=
EXTT4=
EXTT5=
EXTT6=
EXTT7=
EXTT8=
PLAYORDER=
